<svg id="visual" viewBox="0 0 900 300" width="900" height="300" xmlns="http://www.w3.org/2000/svg" xmlns:xlink="http://www.w3.org/1999/xlink" version="1.1"><rect x="0" y="0" width="900" height="300" fill="#001220"></rect><path d="M0 75L21.5 77C43 79 86 83 128.8 90.5C171.7 98 214.3 109 257.2 115C300 121 343 122 385.8 115.2C428.7 108.3 471.3 93.7 514.2 92.2C557 90.7 600 102.3 642.8 109.8C685.7 117.3 728.3 120.7 771.2 121.2C814 121.7 857 119.3 878.5 118.2L900 117L900 0L878.5 0C857 0 814 0 771.2 0C728.3 0 685.7 0 642.8 0C600 0 557 0 514.2 0C471.3 0 428.7 0 385.8 0C343 0 300 0 257.2 0C214.3 0 171.7 0 128.8 0C86 0 43 0 21.5 0L0 0Z" fill="#fa7268"></path><path d="M0 66L21.5 71.7C43 77.3 86 88.7 128.8 89.2C171.7 89.7 214.3 79.3 257.2 75.8C300 72.3 343 75.7 385.8 77.8C428.7 80 471.3 81 514.2 78.7C557 76.3 600 70.7 642.8 74C685.7 77.3 728.3 89.7 771.2 93.7C814 97.7 857 93.3 878.5 91.2L900 89L900 0L878.5 0C857 0 814 0 771.2 0C728.3 0 685.7 0 642.8 0C600 0 557 0 514.2 0C471.3 0 428.7 0 385.8 0C343 0 300 0 257.2 0C214.3 0 171.7 0 128.8 0C86 0 43 0 21.5 0L0 0Z" fill="#ef5f67"></path><path d="M0 66L21.5 62.8C43 59.7 86 53.3 128.8 51.5C171.7 49.7 214.3 52.3 257.2 54.3C300 56.3 343 57.7 385.8 61.7C428.7 65.7 471.3 72.3 514.2 69.8C557 67.3 600 55.7 642.8 53C685.7 50.3 728.3 56.7 771.2 61C814 65.3 857 67.7 878.5 68.8L900 70L900 0L878.5 0C857 0 814 0 771.2 0C728.3 0 685.7 0 642.8 0C600 0 557 0 514.2 0C471.3 0 428.7 0 385.8 0C343 0 300 0 257.2 0C214.3 0 171.7 0 128.8 0C86 0 43 0 21.5 0L0 0Z" fill="#e34c67"></path><path d="M0 42L21.5 39.7C43 37.3 86 32.7 128.8 31.2C171.7 29.7 214.3 31.3 257.2 35.7C300 40 343 47 385.8 47.5C428.7 48 471.3 42 514.2 41.2C557 40.3 600 44.7 642.8 46.8C685.7 49 728.3 49 771.2 47.5C814 46 857 43 878.5 41.5L900 40L900 0L878.5 0C857 0 814 0 771.2 0C728.3 0 685.7 0 642.8 0C600 0 557 0 514.2 0C471.3 0 428.7 0 385.8 0C343 0 300 0 257.2 0C214.3 0 171.7 0 128.8 0C86 0 43 0 21.5 0L0 0Z" fill="#d53867"></path><path d="M0 26L21.5 24.7C43 23.3 86 20.7 128.8 21C171.7 21.3 214.3 24.7 257.2 25.8C300 27 343 26 385.8 26.7C428.7 27.3 471.3 29.7 514.2 31.2C557 32.7 600 33.3 642.8 31.2C685.7 29 728.3 24 771.2 22.2C814 20.3 857 21.7 878.5 22.3L900 23L900 0L878.5 0C857 0 814 0 771.2 0C728.3 0 685.7 0 642.8 0C600 0 557 0 514.2 0C471.3 0 428.7 0 385.8 0C343 0 300 0 257.2 0C214.3 0 171.7 0 128.8 0C86 0 43 0 21.5 0L0 0Z" fill="#c62368"></path></svg>